<svg width="89" height="88" viewBox="0 0 89 88" fill="none" xmlns="http://www.w3.org/2000/svg">
<g filter="url(#filter0_d_806_331)">
<path opacity="0.3" d="M84.5 40C84.5 62.0914 66.5914 80 44.5 80C22.4086 80 4.5 62.0914 4.5 40C4.5 17.9086 22.4086 0 44.5 0C66.5914 0 84.5 17.9086 84.5 40ZM15.4071 40C15.4071 56.0675 28.4325 69.0929 44.5 69.0929C60.5675 69.0929 73.5929 56.0675 73.5929 40C73.5929 23.9325 60.5675 10.9071 44.5 10.9071C28.4325 10.9071 15.4071 23.9325 15.4071 40Z" fill="#2F2E30"/>
<circle cx="44.5" cy="40" r="29" fill="black"/>
</g>
<g clip-path="url(#clip0_806_331)">
<path d="M36.1667 51.6667C38.0076 51.6667 39.5 50.1743 39.5 48.3333C39.5 46.4924 38.0076 45 36.1667 45C34.3257 45 32.8333 46.4924 32.8333 48.3333C32.8333 50.1743 34.3257 51.6667 36.1667 51.6667Z" stroke="#FAFAFA" stroke-width="2" stroke-linecap="round" stroke-linejoin="round"/>
<path d="M52.8333 51.6667C54.6743 51.6667 56.1667 50.1743 56.1667 48.3333C56.1667 46.4924 54.6743 45 52.8333 45C50.9924 45 49.5 46.4924 49.5 48.3333C49.5 50.1743 50.9924 51.6667 52.8333 51.6667Z" stroke="#FAFAFA" stroke-width="2" stroke-linecap="round" stroke-linejoin="round"/>
<path d="M32.8333 48.3335H31.5C30.3954 48.3335 29.5 47.4381 29.5 46.3335V41.6668M27.8333 28.3335H44.1666C45.2712 28.3335 46.1666 29.2289 46.1666 30.3335V48.3335M39.5 48.3335H49.5M56.1667 48.3335H57.5C58.6046 48.3335 59.5 47.4381 59.5 46.3335V38.3335M59.5 38.3335H46.1666M59.5 38.3335L55.0826 30.9712C54.7211 30.3688 54.0701 30.0002 53.3676 30.0002H46.1666" stroke="#FAFAFA" stroke-width="2" stroke-linecap="round" stroke-linejoin="round"/>
<path d="M32.5 48H31.1667C30.0621 48 29.1667 47.1046 29.1667 46V41.3333M27.5 28H43.8333C44.9379 28 45.8333 28.8954 45.8333 30V48M39.5 48H49.1667M56.5 48H57.1667C58.2712 48 59.1667 47.1046 59.1667 46V38M59.1667 38H45.8333M59.1667 38L54.7493 30.6377C54.3878 30.0353 53.7368 29.6667 53.0343 29.6667H45.8333" stroke="#FAFAFA" stroke-width="2" stroke-linecap="round" stroke-linejoin="round"/>
<path d="M29.5 31.8184H36.1667" stroke="#FAFAFA" stroke-width="2" stroke-linecap="round" stroke-linejoin="round"/>
<path d="M26.3182 35.4546H32.9848" stroke="#FAFAFA" stroke-width="2" stroke-linecap="round" stroke-linejoin="round"/>
<path d="M29.5 39.0908H36.1667" stroke="#FAFAFA" stroke-width="2" stroke-linecap="round" stroke-linejoin="round"/>
</g>
<defs>
<filter id="filter0_d_806_331" x="0.5" y="0" width="88" height="88" filterUnits="userSpaceOnUse" color-interpolation-filters="sRGB">
<feFlood flood-opacity="0" result="BackgroundImageFix"/>
<feColorMatrix in="SourceAlpha" type="matrix" values="0 0 0 0 0 0 0 0 0 0 0 0 0 0 0 0 0 0 127 0" result="hardAlpha"/>
<feOffset dy="4"/>
<feGaussianBlur stdDeviation="2"/>
<feComposite in2="hardAlpha" operator="out"/>
<feColorMatrix type="matrix" values="0 0 0 0 0 0 0 0 0 0 0 0 0 0 0 0 0 0 0.25 0"/>
<feBlend mode="normal" in2="BackgroundImageFix" result="effect1_dropShadow_806_331"/>
<feBlend mode="normal" in="SourceGraphic" in2="effect1_dropShadow_806_331" result="shape"/>
</filter>
<clipPath id="clip0_806_331">
<rect width="40" height="40" fill="white" transform="translate(24.5 20)"/>
</clipPath>
</defs>
</svg>
